# xmcd CD database file
#
# Track frame offsets:
#	150
#	12527
#	25440
#	37865
#	53422
#	65725
#	81477
#	94572
#	106322
#	119775
#
# Disc length: 1776 seconds
#
# Revision: 0
# Processed by: cddbd v1.4PL0 Copyright (c) Steve Scherf et al.
# Submitted via: CDex 1.40Release
#
DISCID=8206ee0a
DTITLE=Jook Bourke - A Redhead From Chesapeake Bay
DYEAR=2001
DGENRE=Blues
TTITLE0=I'm A Bad Man
TTITLE1=A Redhead From Chesapeake Bay
TTITLE2=It's Just A Dream
TTITLE3=Price To Pay
TTITLE4=I Gotta Be Right
TTITLE5=Granddad's Face
TTITLE6=This Place Is Hot
TTITLE7=The Seat Next To You
TTITLE8=Trying To Be A Better Man
TTITLE9=Let Him Feel Good
EXTD=YEAR: 2001 ID3G: 0
EXTT0=
EXTT1=
EXTT2=
EXTT3=
EXTT4=
EXTT5=
EXTT6=
EXTT7=
EXTT8=
EXTT9=
PLAYORDER=
